<?xml version="1.0" encoding="UTF-8"?><svg xmlns:svg="http://www.w3.org/2000/svg" xmlns="http://www.w3.org/2000/svg" xmlns:xlink="http://www.w3.org/1999/xlink" version="1.0" width="800" height="50" viewBox="0 0 800 50" ><text font-size="12" font-family="Palatino, Georgia, Times New Roman, serif" font-style="italic" x="25" y="9" text-anchor="middle" dominant-baseline="middle" >0</text><text font-size="12" font-family="Palatino, Georgia, Times New Roman, serif" font-style="italic" x="75" y="9" text-anchor="middle" dominant-baseline="middle" >1</text><text font-size="12" font-family="Palatino, Georgia, Times New Roman, serif" font-style="italic" x="125" y="9" text-anchor="middle" dominant-baseline="middle" >2</text><text font-size="12" font-family="Palatino, Georgia, Times New Roman, serif" font-style="italic" x="175" y="9" text-anchor="middle" dominant-baseline="middle" >3</text><text font-size="12" font-family="Palatino, Georgia, Times New Roman, serif" font-style="italic" x="225" y="9" text-anchor="middle" dominant-baseline="middle" >4</text><text font-size="12" font-family="Palatino, Georgia, Times New Roman, serif" font-style="italic" x="375" y="9" text-anchor="middle" dominant-baseline="middle" >Next N bytes</text><text font-size="12" font-family="Palatino, Georgia, Times New Roman, serif" font-style="italic" x="525" y="9" text-anchor="middle" dominant-baseline="middle" >N+5</text><rect x="0" y="19" height="30" width="50" fill="#a0ffa0" /><line x1="0" y1="19" x2="50" y2="19" stroke="#000000" stroke-width="1" /><line x1="0" y1="49" x2="50" y2="49" stroke="#000000" stroke-width="1" /><line x1="50" y1="19" x2="50" y2="49" stroke="#000000" stroke-width="1" /><line x1="0" y1="19" x2="0" y2="49" stroke="#000000" stroke-width="1" /><text font-size="18" font-family="Palatino, Georgia, Times New Roman, serif" x="25" y="35" text-anchor="middle" dominant-baseline="middle" >Addr</text><rect x="50" y="19" height="30" width="50" fill="#a0ffa0" /><line x1="50" y1="19" x2="100" y2="19" stroke="#000000" stroke-width="1" /><line x1="50" y1="49" x2="100" y2="49" stroke="#000000" stroke-width="1" /><line x1="100" y1="19" x2="100" y2="49" stroke="#000000" stroke-width="1" /><line x1="50" y1="19" x2="50" y2="49" stroke="#000000" stroke-width="1" /><text font-size="18" font-family="Palatino, Georgia, Times New Roman, serif" x="75" y="35" text-anchor="middle" dominant-baseline="middle" >ID</text><rect x="100" y="19" height="30" width="100" fill="#a0ffa0" /><line x1="100" y1="19" x2="200" y2="19" stroke="#000000" stroke-width="1" /><line x1="100" y1="49" x2="200" y2="49" stroke="#000000" stroke-width="1" /><line x1="200" y1="19" x2="200" y2="49" stroke="#000000" stroke-width="1" /><line x1="100" y1="19" x2="100" y2="49" stroke="#000000" stroke-width="1" /><text font-size="18" font-family="Palatino, Georgia, Times New Roman, serif" x="150" y="35" text-anchor="middle" dominant-baseline="middle" >Type</text><rect x="200" y="19" height="30" width="50" fill="#a0ffa0" /><line x1="200" y1="19" x2="250" y2="19" stroke="#000000" stroke-width="1" /><line x1="200" y1="49" x2="250" y2="49" stroke="#000000" stroke-width="1" /><line x1="250" y1="19" x2="250" y2="49" stroke="#000000" stroke-width="1" /><line x1="200" y1="19" x2="200" y2="49" stroke="#000000" stroke-width="1" /><text font-size="18" font-family="Palatino, Georgia, Times New Roman, serif" x="225" y="35" text-anchor="middle" dominant-baseline="middle" >N</text><line x1="250" y1="19" x2="450" y2="19" stroke="#000000" stroke-width="1" /><line x1="250" y1="49" x2="450" y2="49" stroke="#000000" stroke-width="1" /><line x1="250" y1="19" x2="250" y2="49" stroke="#000000" stroke-width="1" /><text font-size="18" font-family="Palatino, Georgia, Times New Roman, serif" x="350" y="35" text-anchor="middle" dominant-baseline="middle" >Payload</text><line x1="450" y1="19" x2="477.5" y2="19" stroke="#000000" stroke-width="1" /><line stroke-dasharray="1,3" x1="477.5" y1="19" x2="467.5" y2="49" stroke="#000000" stroke-width="1" /><line x1="467.5" y1="49" x2="450" y2="49" stroke="#000000" stroke-width="1" /><line x1="500" y1="19" x2="482.5" y2="19" stroke="#000000" stroke-width="1" /><line stroke-dasharray="1,3" x1="482.5" y1="19" x2="472.5" y2="49" stroke="#000000" stroke-width="1" /><line x1="472.5" y1="49" x2="500" y2="49" stroke="#000000" stroke-width="1" /><rect x="500" y="19" height="30" width="50" fill="#ffb0a0" /><line x1="500" y1="19" x2="550" y2="19" stroke="#000000" stroke-width="1" /><line x1="500" y1="49" x2="550" y2="49" stroke="#000000" stroke-width="1" /><line x1="550" y1="19" x2="550" y2="49" stroke="#000000" stroke-width="1" /><line x1="500" y1="19" x2="500" y2="49" stroke="#000000" stroke-width="1" /><text font-size="18" font-family="Palatino, Georgia, Times New Roman, serif" x="525" y="35" text-anchor="middle" dominant-baseline="middle" >CRC</text></svg>